<?xml version="1.0" encoding="UTF-8"?>
<svg width="140px" height="40px" viewBox="0 0 140 40" version="1.1" xmlns="http://www.w3.org/2000/svg" xmlns:xlink="http://www.w3.org/1999/xlink">
    <title>ZStack &amp; MorpheusData -白</title>
    <g id="ZStack-&amp;-MorpheusData--白" stroke="none" stroke-width="1" fill="none" fill-rule="evenodd">
        <g id="文件还原界面-登入页面logo" transform="translate(9.000000, 0.000000)">
            <rect id="矩形" x="0" y="0" width="122" height="40"></rect>
            <path d="M17.7803611,4.34782609 L21.3364751,10.6087381 L10.6682375,29.3912619 L13.0390499,29.3912619 L9.48283135,35.6521739 L0,35.6521739 L14.2243516,10.6087381 L11.8536437,10.6087381 L15.4096532,4.34782609 L17.7803611,4.34782609 Z M22.5218604,12.6965937 L27.263276,21.0434499 L24.8925682,21.0434499 L23.707162,23.130456 L28.4486822,23.130456 L35.5608058,35.6521739 L11.8536228,35.6521739 L15.4096323,29.3912619 L24.8963317,29.3857401 L23.7109255,27.2987341 L14.2243307,27.304362 L22.5218604,12.6965937 Z M63.5043601,12.7759156 C65.6489427,12.7759156 68.9563504,13.7994555 68.9563504,16.4502102 L68.9563504,18.1826567 L65.907267,18.1826567 L65.907267,17.3426086 C65.907267,16.4764384 64.6929025,15.8990978 63.4785381,15.8990978 C61.9280699,15.8990978 60.7910668,16.7125991 60.7910668,17.8937209 C60.7910668,21.0696782 69.4214595,20.4396687 69.4214595,26.5546793 C69.4214595,29.5205981 67.1732753,32.0401052 63.3233972,32.0401052 C59.2667342,32.0401052 57.0188636,29.1530837 57.0188636,29.1530837 L58.930944,26.7384896 L59.01699,26.8332166 L59.1066051,26.9264488 C59.6305018,27.4595719 61.276814,28.9430451 63.3750411,28.9430451 C64.7703684,28.9430451 66.0108685,28.1820004 66.0108685,26.7384896 C66.0108685,23.5628509 57.3804758,23.8252398 57.3804758,18.0250747 C57.3804758,15.0066994 59.9643456,12.7759156 63.5043601,12.7759156 Z M86.5098231,18.0250747 C90.8514079,18.0250747 92.1638539,20.3069762 92.1937888,23.2487149 L92.1943157,28.3395824 C92.1943157,28.7068844 92.4011005,28.9168168 92.7629218,28.9168168 L93.7964279,28.9168168 L93.7964279,31.7251535 L90.8509459,31.7251535 C89.636477,31.7251535 89.1713679,31.0427936 89.1713679,30.2555207 L89.1740533,30.0643605 L89.1829897,29.859629 C89.1898449,29.7451423 89.1971898,29.6779677 89.1971898,29.6779677 L89.1453368,29.6779677 L89.1011866,29.7698291 L89.0371184,29.8883058 C88.7082212,30.4669907 87.5911417,32.0401052 85.1663488,32.0401052 C82.8149813,32.0401052 80.6703987,30.5441379 80.6703987,27.8671549 C80.6703987,23.7988921 86.0051617,23.3516691 88.288425,23.3276906 L88.9130436,23.326584 L88.9130436,23.2217771 C88.9130436,21.3441576 88.1931576,20.6260772 86.5836551,20.598105 L86.4840011,20.5972507 C85.8897822,20.5972507 84.7270617,20.7545142 84.7270617,21.4893306 L84.7270617,22.1980249 L81.6779782,22.1980249 L81.6779782,20.7807425 C81.6779782,18.2874636 85.1405268,18.0250747 86.5098231,18.0250747 Z M102.27513,18.0250747 C103.980425,18.0250747 107.055226,18.733769 107.055226,21.0431314 L107.055226,22.6179959 L104.161388,22.6179959 L104.161388,21.8831795 C104.161388,21.1482569 103.076029,20.8334114 102.27513,20.8334114 C100.001228,20.8334114 98.3736074,22.5917676 98.3736074,25.0063617 C98.3736074,27.7358012 100.363049,29.1268554 102.481914,29.1268554 C104.72968,29.1268554 106.383436,27.3160426 106.383436,27.3160426 L107.752942,29.6255112 L107.680672,29.7083162 L107.57513,29.8206413 C107.01757,30.3950908 105.162121,32.0401052 102.197664,32.0401052 C97.8565408,32.0401052 95.0661998,28.9168168 95.0661998,25.0325899 C95.0661998,21.25317 97.7533574,18.0250747 102.27513,18.0250747 Z M75.8378847,14.6918858 L75.8378847,18.339952 L78.8353242,18.339952 L78.8353242,20.9907067 L75.8378847,20.9907067 L75.8378847,26.3974477 C75.8378847,28.6020032 77.5431802,28.9168487 78.4475765,28.9168487 L78.5851999,28.9142997 L78.7075521,28.9076474 C78.91697,28.8926021 79.0420045,28.8643921 79.0420045,28.8643921 L79.0420045,31.7776419 L78.9000246,31.7998712 L78.7281917,31.8206366 C78.5715471,31.8371454 78.3637045,31.8528191 78.1218892,31.8559671 L77.9092041,31.8556852 L77.7792953,31.8529748 C75.8831399,31.7997567 72.556299,31.1057568 72.556299,26.8174187 L72.556299,20.9907067 L70.8510035,20.9907067 L70.8510035,18.339952 L72.633974,18.339952 L72.633974,14.6918858 L75.8378847,14.6918858 Z M55.3113727,13.1071246 L55.3113727,15.2592235 L47.0687278,27.1485958 L46.9295877,27.3447792 L46.7936676,27.5297024 C46.1681229,28.3661034 45.6737141,28.8283734 45.6737141,28.8283734 L45.6737141,28.8807237 L45.9192566,28.8622964 L46.2674954,28.8443267 C46.4615088,28.8363841 46.6976935,28.8299313 46.9679374,28.828618 L52.0817446,28.8283734 C52.4433567,28.8283734 52.6500371,28.6183348 52.6500371,28.2507142 L52.6500371,27.1223675 L55.6991205,27.1223675 L55.6991205,29.9569325 C55.6991205,31.2167391 55.1823674,31.741517 53.942181,31.741517 L41.4877322,31.741517 L41.4877322,29.5631898 L49.7303771,17.7000458 L49.8695208,17.5082034 L50.0176213,17.3105002 C50.4551536,16.7358988 50.8271177,16.3296685 51.0080713,16.1404155 L51.1257044,16.0203744 L51.1257044,15.9679179 L50.8800817,15.9863826 L50.589831,16.0019097 C50.3912228,16.0107224 50.1432509,16.0182499 49.8559063,16.0199941 L45.2860709,16.0203744 C44.9241452,16.0203744 44.7176739,16.2303068 44.7176739,16.5979274 L44.7176739,17.7265927 L41.6428731,17.7265927 L41.6428731,14.8920277 C41.6428731,13.6584493 42.1596261,13.1071246 43.3998125,13.1071246 L55.3113727,13.1071246 Z M111.612668,13.0908142 L111.794227,13.0931822 C112.88138,13.1229326 113.369921,13.443005 113.369921,14.6132222 L113.369921,23.0642482 L114.351783,23.0642482 C114.764935,23.0642482 115.307823,22.9855634 115.591969,22.5655924 L118.279127,18.3399732 L121.922534,18.3399732 L118.589409,23.3790937 C118.020698,24.2190356 117.607233,24.4290742 117.607233,24.4290742 L117.607233,24.4815307 L117.646328,24.5004685 L117.706659,24.5358354 C117.868029,24.6381635 118.20274,24.9080146 118.537451,25.5311926 L120.036276,28.4182141 C120.243061,28.8119568 120.501385,28.9168699 121.121321,28.9168699 L122,28.9168699 L122,31.7252066 L119.571167,31.7252066 C118.459985,31.7252066 118.020698,31.5413963 117.50405,30.5703131 L115.307823,26.3712407 C115.062316,25.9224346 114.560178,25.8763232 114.156262,25.8728341 L113.369921,25.8725849 L113.369921,31.7252066 L110.088335,31.7252066 L110.088335,16.5029322 C110.088335,16.1091895 109.88155,15.9253792 109.519729,15.9253792 L108.486223,15.9253792 L108.486223,13.0908142 L111.612668,13.0908142 Z M88.9646876,25.6101429 L88.2222266,25.6109816 L88.0425858,25.6137038 C86.341022,25.6488626 83.9778063,25.9705215 83.9778063,27.7095729 C83.9778063,28.6019713 84.6235647,29.4417009 85.9672481,29.4417009 C87.7241875,29.4417009 88.9646876,27.5523094 88.9646876,25.9249884 L88.9646876,25.6101429 Z" id="形状" fill="#FFFFFF"></path>
        </g>
    </g>
</svg>