<?xml version="1.0" encoding="UTF-8"?>
<svg width="140px" height="40px" viewBox="0 0 140 40" version="1.1" xmlns="http://www.w3.org/2000/svg" xmlns:xlink="http://www.w3.org/1999/xlink">
    <title>ZStack &amp; MorpheusData -蓝</title>
    <g id="ZStack-&amp;-MorpheusData--蓝" stroke="none" stroke-width="1" fill="none" fill-rule="evenodd">
        <g id="文件还原界面-登入页面logo备份" transform="translate(9.000000, 0.000000)">
            <rect id="矩形" x="0" y="0" width="122" height="40"></rect>
            <g id="编组-3" transform="translate(0.000000, 5.217391)">
                <path d="M15.4096532,0 L11.8536437,6.08699782 L14.2243516,6.08699782 L0,30.4347826 L9.48283135,30.4347826 L13.0390499,24.3477848 L10.6682375,24.3477848 L21.3364751,6.08699782 L17.7803611,0 L15.4096532,0 Z M41.4877322,24.5149369 L49.7303771,12.9813247 L49.8695208,12.7948113 C50.5578677,11.8866491 51.1257044,11.3483109 51.1257044,11.3483109 L51.1257044,11.2973114 L50.8800817,11.3152632 C50.6419157,11.3299511 50.241903,11.3483109 49.7303771,11.3483109 L45.2860709,11.3483109 C44.9241452,11.3483109 44.7176739,11.5524118 44.7176739,11.9098207 L44.7176739,13.0071342 L41.6428731,13.0071342 L41.6428731,10.2513071 C41.6428731,9.05199478 42.1596261,8.51598466 43.3998125,8.51598466 L55.3113727,8.51598466 L55.3113727,10.6083031 L47.0687278,22.167415 L46.9295877,22.3581489 C46.2412752,23.2846057 45.6737141,23.8005321 45.6737141,23.8005321 L45.6737141,23.8514283 L45.9192566,23.8335128 C46.1414793,23.8198319 46.5046621,23.8029588 46.9679374,23.8007699 L52.0817446,23.8005321 C52.4433567,23.8005321 52.6500371,23.5963279 52.6500371,23.238919 L52.6500371,22.1419153 L55.6991205,22.1419153 L55.6991205,24.8977423 C55.6991205,26.1225544 55.1823674,26.632755 53.942181,26.632755 L41.4877322,26.632755 L41.4877322,24.5149369 Z M57.0188636,24.1162226 L58.930944,21.7687007 L59.01699,21.8607963 C59.413002,22.2710408 61.1369322,23.9120185 63.3750411,23.9120185 C64.7703684,23.9120185 66.0108685,23.1721139 66.0108685,21.7687007 C66.0108685,18.6812741 57.3804758,18.9363745 57.3804758,13.297325 C57.3804758,10.3627935 59.9643456,8.19397596 63.5043601,8.19397596 C65.6489427,8.19397596 68.9563504,9.18908412 68.9563504,11.7662067 L68.9563504,13.4505297 L65.907267,13.4505297 L65.907267,12.6338163 C65.907267,11.7917064 64.6929025,11.2304031 63.4785381,11.2304031 C61.9280699,11.2304031 60.7910668,12.0213071 60.7910668,13.16962 C60.7910668,16.2573562 69.4214595,15.644847 69.4214595,21.5899962 C69.4214595,24.4735283 67.1732753,26.9230491 63.3233972,26.9230491 C59.2667342,26.9230491 57.0188636,24.1162226 57.0188636,24.1162226 Z M72.556299,16.1805784 L70.8510035,16.1805784 L70.8510035,13.6034557 L72.633974,13.6034557 L72.633974,10.0567247 L75.8378847,10.0567247 L75.8378847,13.6034557 L78.8353242,13.6034557 L78.8353242,16.1805784 L75.8378847,16.1805784 L75.8378847,21.4371322 C75.8378847,23.58045 77.5431802,23.8865497 78.4475765,23.8865497 L78.5851999,23.8840715 C78.8673695,23.8738565 79.0420045,23.8355503 79.0420045,23.8355503 L79.0420045,26.6678765 L78.9000246,26.6894883 C78.7434582,26.710429 78.4673395,26.7396538 78.1218892,26.744026 L77.9092041,26.7437519 C76.0396759,26.7188695 72.556299,26.1116135 72.556299,21.8454372 L72.556299,16.1805784 Z M85.9672481,24.3968227 C87.7241875,24.3968227 88.9646876,22.5599144 88.9646876,20.9777967 L88.9646876,20.6716969 L88.2222266,20.6725123 C86.5128374,20.6887613 83.9778063,20.9616813 83.9778063,22.7128094 C83.9778063,23.580419 84.6235647,24.3968227 85.9672481,24.3968227 Z M88.288425,18.4526461 L88.9130436,18.4515702 L88.9130436,18.3496746 C88.9130436,16.5242112 88.1931576,15.8260775 86.5836551,15.7988823 L86.4840011,15.7980517 C85.8897822,15.7980517 84.7270617,15.9509468 84.7270617,16.6653516 L84.7270617,17.35436 L81.6779782,17.35436 L81.6779782,15.9764465 C81.6779782,13.5524254 85.1405268,13.297325 86.5098231,13.297325 C90.8514079,13.297325 92.1638539,15.5158404 92.1937888,18.3758641 L92.1943157,23.3253186 C92.1943157,23.6824178 92.4011005,23.8865188 92.7629218,23.8865188 L93.7964279,23.8865188 L93.7964279,26.6168461 L90.8509459,26.6168461 C89.636477,26.6168461 89.1713679,25.9534407 89.1713679,25.1880364 L89.1740533,25.0021862 C89.1806638,24.773471 89.1971898,24.6265266 89.1971898,24.6265266 L89.1453368,24.6265266 L89.1011866,24.7158362 C88.8785846,25.1391373 87.7851251,26.9230491 85.1663488,26.9230491 C82.8149813,26.9230491 80.6703987,25.4686365 80.6703987,22.8660141 C80.6703987,18.9107586 86.0051617,18.4759585 88.288425,18.4526461 L88.288425,18.4526461 Z M102.27513,13.297325 C103.980425,13.297325 107.055226,13.9863334 107.055226,16.2315468 L107.055226,17.7626651 L104.161388,17.7626651 L104.161388,17.0482602 C104.161388,16.3337521 103.076029,16.0276524 102.27513,16.0276524 C100.001228,16.0276524 98.3736074,17.7371654 98.3736074,20.0846874 C98.3736074,22.7383091 100.363049,24.0907229 102.481914,24.0907229 C104.72968,24.0907229 106.383436,22.3302105 106.383436,22.3302105 L107.752942,24.5755272 L107.680672,24.656032 C107.296462,25.0682169 105.390156,26.9230491 102.197664,26.9230491 C97.8565408,26.9230491 95.0661998,23.8865188 95.0661998,20.1101871 C95.0661998,16.435751 97.7533574,13.297325 102.27513,13.297325 Z M110.088335,11.8174642 C110.088335,11.4346589 109.88155,11.2559544 109.519729,11.2559544 L108.486223,11.2559544 L108.486223,8.50012735 L111.612668,8.50012735 L111.794227,8.50242956 C112.88138,8.5313536 113.369921,8.84253502 113.369921,9.9802462 L113.369921,18.1965215 L114.351783,18.1965215 C114.764935,18.1965215 115.307823,18.1200224 115.591969,17.7117173 L118.279127,13.6034764 L121.922534,13.6034764 L118.589409,18.5026213 C118.020698,19.3192315 117.607233,19.5234356 117.607233,19.5234356 L117.607233,19.574435 L117.646328,19.5928468 C117.767616,19.6557393 118.152534,19.898192 118.537451,20.5949397 L120.036276,23.4017662 C120.243061,23.7845715 120.501385,23.8865704 121.121321,23.8865704 L122,23.8865704 L122,26.6168977 L119.571167,26.6168977 C118.459985,26.6168977 118.020698,26.4381933 117.50405,25.4940846 L115.307823,21.4116531 C115.062316,20.9753138 114.560178,20.9304833 114.156262,20.9270912 L113.369921,20.9268489 L113.369921,26.6168977 L110.088335,26.6168977 L110.088335,11.8174642 Z" id="形状" fill="#005596"></path>
                <polygon id="Fill-2" fill="#7DA6D7" points="14.2243307 22.3188543 23.7109255 22.3133827 24.8963317 24.3424164 15.4096323 24.3477848 11.8536228 30.4347826 35.5608058 30.4347826 28.4486822 18.2608902 23.707162 18.2608902 24.8925682 16.2318565 27.263276 16.2318565 22.5218604 8.1168574"></polygon>
            </g>
        </g>
    </g>
</svg>